<?xml version="1.0" standalone="no"?>
<!DOCTYPE svg PUBLIC "-//W3C//DTD SVG 20010904//EN"
 "http://www.w3.org/TR/2001/REC-SVG-20010904/DTD/svg10.dtd">
<svg version="1.0" xmlns="http://www.w3.org/2000/svg"
 width="1000.000000pt" height="1000.000000pt" viewBox="0 0 1000.000000 1000.000000"
 preserveAspectRatio="xMidYMid meet">
<metadata>
Created by potrace 1.16, written by Peter Selinger 2001-2019
</metadata>
<g transform="translate(0.000000,1000.000000) scale(0.100000,-0.100000)"
fill="#000000" stroke="none">
<path d="M4550 8199 c-1224 -77 -2360 -476 -3155 -1110 -246 -196 -497 -458
-659 -689 -231 -328 -369 -658 -437 -1047 -33 -184 -33 -521 -1 -703 96 -544
335 -997 751 -1424 1031 -1058 2833 -1594 4686 -1395 1488 159 2773 800 3454
1722 252 340 415 727 477 1127 25 159 25 481 0 640 -87 566 -360 1068 -828
1526 -797 780 -2043 1268 -3458 1354 -191 12 -634 11 -830 -1z m1060 -528
c397 -43 696 -100 1035 -197 971 -278 1768 -812 2164 -1451 205 -330 304 -664
304 -1023 0 -658 -347 -1267 -1003 -1764 -583 -441 -1345 -741 -2210 -871
-491 -74 -1132 -86 -1625 -29 -685 78 -1310 258 -1850 534 -844 431 -1395
1050 -1549 1741 -111 496 -6 1007 299 1465 599 896 1858 1500 3365 1614 63 4
288 7 500 5 303 -2 425 -8 570 -24z"/>
<path d="M7485 5978 c-16 -6 -38 -14 -47 -19 -10 -5 -29 -9 -43 -9 -14 0 -25
-4 -25 -10 0 -5 -6 -10 -14 -10 -19 0 -136 -62 -136 -72 0 -4 -5 -8 -12 -8
-12 0 -20 -6 -78 -64 -74 -73 -113 -125 -154 -206 -16 -30 -32 -63 -37 -72 -5
-10 -9 -27 -9 -38 0 -11 -4 -28 -9 -38 -12 -23 -31 -152 -31 -211 0 -65 30
-212 51 -253 5 -10 9 -25 9 -33 0 -8 5 -15 10 -15 6 0 10 -5 10 -11 0 -23 71
-127 122 -180 53 -55 137 -119 156 -119 6 0 12 -4 14 -8 5 -12 109 -59 175
-79 85 -26 274 -22 374 7 41 12 82 24 91 26 10 3 24 11 31 17 7 7 35 23 62 37
28 13 52 27 55 30 3 3 21 17 40 30 87 60 230 244 230 295 0 8 5 15 10 15 6 0
10 9 10 19 0 11 5 23 10 26 6 3 10 19 10 35 0 16 5 32 10 35 6 4 10 67 10 155
0 88 -4 151 -10 155 -5 3 -10 17 -10 31 0 13 -4 32 -8 42 -5 9 -20 40 -33 67
-13 28 -26 52 -30 55 -3 3 -16 23 -27 46 -11 22 -37 54 -56 71 -20 16 -36 34
-36 38 0 9 -92 95 -103 95 -4 0 -17 9 -29 20 -12 11 -28 20 -35 20 -7 0 -13 5
-13 10 0 6 -9 10 -20 10 -11 0 -20 5 -20 10 0 6 -11 10 -25 10 -14 0 -25 5
-25 10 0 6 -11 10 -24 10 -14 0 -27 4 -30 9 -3 5 -23 12 -43 16 -63 12 -286
14 -318 3z"/>
<path d="M2035 5960 c-3 -5 -17 -10 -30 -10 -13 0 -27 -4 -30 -10 -3 -5 -16
-10 -28 -10 -12 0 -33 -9 -47 -20 -14 -11 -31 -20 -37 -20 -7 0 -13 -4 -13
-10 0 -5 -6 -10 -14 -10 -15 0 -186 -163 -186 -177 0 -4 -14 -23 -31 -42 -27
-31 -42 -58 -71 -131 -6 -14 -14 -33 -19 -42 -5 -10 -9 -39 -9 -66 0 -26 -5
-53 -11 -59 -13 -13 -6 -215 10 -293 7 -30 14 -70 18 -87 3 -18 9 -33 14 -33
5 0 9 -10 9 -22 0 -13 9 -34 20 -48 11 -14 20 -30 20 -36 0 -12 115 -133 165
-174 17 -14 42 -31 58 -39 15 -8 27 -18 27 -23 0 -4 7 -8 15 -8 9 0 26 -6 38
-14 12 -8 51 -24 87 -36 191 -62 411 -43 590 52 108 57 112 60 195 144 111
112 142 167 199 351 25 81 21 216 -10 326 -29 105 -62 187 -75 187 -5 0 -9 9
-9 20 0 11 -4 20 -8 20 -5 0 -15 12 -23 28 -8 15 -23 36 -34 48 -11 12 -29 32
-40 46 -27 34 -151 122 -195 138 -19 7 -39 17 -44 22 -6 4 -20 8 -32 8 -13 0
-26 5 -29 10 -3 6 -19 10 -35 10 -16 0 -32 5 -35 10 -4 6 -77 10 -185 10 -108
0 -181 -4 -185 -10z"/>
<path d="M4893 4692 c-24 -2 -43 -7 -43 -13 0 -5 -11 -9 -25 -9 -14 0 -25 -4
-25 -10 0 -5 -9 -10 -20 -10 -11 0 -20 -4 -20 -10 0 -5 -7 -10 -14 -10 -8 0
-28 -17 -43 -37 -15 -21 -31 -39 -35 -41 -5 -2 -8 -12 -8 -23 0 -10 -4 -19
-10 -19 -5 0 -10 -11 -10 -25 0 -14 -4 -25 -10 -25 -5 0 -10 -13 -10 -30 0
-16 -4 -30 -10 -30 -5 0 -10 -10 -10 -23 0 -13 -4 -27 -8 -32 -5 -6 -15 -30
-22 -55 -8 -25 -17 -47 -20 -50 -3 -3 -16 -21 -27 -40 -35 -57 -112 -130 -138
-130 -8 0 -15 -3 -15 -8 0 -25 -201 -45 -215 -22 -3 6 -15 10 -26 10 -10 0
-29 6 -41 13 -51 29 -128 104 -128 125 0 6 -4 12 -10 12 -5 0 -10 7 -10 15 0
8 -4 23 -9 33 -19 37 -31 71 -55 160 -28 99 -92 210 -127 219 -11 3 -19 9 -19
14 0 5 -9 9 -20 9 -11 0 -20 5 -20 10 0 6 -37 10 -90 10 -53 0 -90 -4 -90 -10
0 -5 -9 -10 -19 -10 -27 0 -104 -80 -128 -132 -29 -63 -47 -175 -39 -244 14
-135 18 -159 27 -168 5 -6 9 -20 9 -33 0 -13 5 -23 10 -23 6 0 10 -13 10 -30
0 -16 5 -30 10 -30 6 0 10 -11 10 -24 0 -13 3 -26 8 -28 9 -4 41 -57 49 -80 3
-10 9 -18 14 -18 5 0 9 -6 9 -12 0 -29 126 -161 220 -233 36 -27 67 -53 68
-57 2 -4 12 -8 23 -8 10 0 19 -4 19 -10 0 -5 9 -10 20 -10 11 0 20 -3 20 -7 0
-11 50 -33 72 -33 10 0 18 -4 18 -10 0 -5 18 -10 39 -10 22 0 41 -5 43 -11 5
-16 405 -16 421 0 6 6 26 11 43 11 18 0 36 5 39 10 3 6 17 10 30 10 13 0 25 3
27 8 2 4 28 20 58 36 30 16 57 32 60 35 3 4 30 26 60 48 30 23 69 54 85 68 17
15 45 38 62 52 l33 25 37 -39 c52 -53 198 -173 212 -173 6 0 11 -4 11 -10 0
-5 9 -10 20 -10 11 0 20 -4 20 -10 0 -5 9 -10 20 -10 11 0 20 -4 20 -10 0 -5
11 -10 24 -10 14 0 27 -4 30 -9 6 -9 32 -17 116 -33 98 -19 362 -9 376 13 3 5
21 9 40 9 19 0 34 5 34 10 0 6 9 10 20 10 11 0 28 4 38 9 9 5 40 19 67 32 165
76 330 245 420 429 20 41 41 83 46 92 5 10 9 27 9 38 0 11 5 20 10 20 6 0 10
15 10 34 0 19 5 38 10 41 6 4 10 65 10 151 0 89 -4 144 -10 144 -5 0 -10 8
-10 18 0 22 -22 72 -32 72 -5 0 -8 7 -8 15 0 18 -88 84 -112 85 -9 0 -20 5
-23 10 -3 6 -48 10 -101 10 -56 0 -94 -4 -94 -10 0 -5 -9 -10 -20 -10 -11 0
-20 -4 -20 -10 0 -5 -6 -10 -12 -10 -24 0 -98 -127 -98 -167 0 -16 -4 -33 -9
-39 -5 -5 -11 -27 -14 -49 -11 -81 -34 -155 -49 -155 -5 0 -8 -7 -8 -15 0 -25
-99 -118 -166 -156 -46 -25 -141 -26 -192 -1 -103 51 -155 90 -202 148 -21 26
-60 110 -60 129 0 8 -4 15 -10 15 -5 0 -10 14 -10 30 0 17 -4 30 -10 30 -5 0
-10 7 -10 15 0 9 -9 35 -20 57 -11 23 -20 48 -20 55 0 7 -4 13 -10 13 -5 0
-10 6 -10 13 0 27 -114 117 -148 117 -11 0 -22 4 -24 8 -4 11 -80 19 -135 14z"/>
</g>
</svg>
